<svg version="1.0" xmlns="http://www.w3.org/2000/svg" width="333.333" height="333.333" viewBox="0 0 250 250"><path d="M105.6 2.6C79.3 6.7 56.8 18.2 37.4 37.5c-15.1 15-25 31-31.2 50.5C1.9 101.5.6 110.6.7 126c0 21.3 3.9 37.4 13.6 56.4 22 43.2 66.6 69.2 115.2 67.3 31.2-1.2 58.1-12.5 81.1-34 33.9-31.6 47-82.7 32.9-127.6-7.7-24.4-23.2-46.4-43.4-61.7C190.1 18.8 170.8 9 160 6c-17.8-4.9-37.1-6.1-54.4-3.4zm46.1 59.6c1.5 1.4 2.3 3.3 2.3 5.6 0 5.3-40.7 114.1-43.7 117-3.6 3.3-8.5 3-11.7-.9-1.4-1.7-2.6-3.7-2.6-4.5 0-3.2 42.3-115 44.3-117.2 2.7-2.9 8.2-3 11.4 0zM86.6 83.4c2.1 1.8 2.8 3.2 2.8 6 0 3.4-1.1 4.8-14.7 18.4C66.6 115.9 60 123 60 123.5s6.5 7.5 14.5 15.5C87.1 151.8 89 154.1 89 156.9c0 4.5-3.8 8.1-8.7 8.1-3.5 0-4.9-1.1-24.5-20.8L35 123.5l21.3-21.3C75 83.6 78 81 80.7 81c1.9 0 4.3 1 5.9 2.4zm108.1 18.8l21.3 21.3-20.8 20.7c-20.3 20.3-20.9 20.8-24.9 20.8-5.1 0-8.3-3.4-8.3-8.7 0-3.2 1.4-5 14.7-18.4l14.7-14.9-15.2-15.3c-15.6-15.7-16.6-17.3-14-22 1.7-3.3 3.9-4.6 7.7-4.7 3.2 0 5.2 1.7 24.8 21.2z"/></svg>